<?xml version="1.0" encoding="UTF-8"?>
<svg version="1.1" xmlns="http://www.w3.org/2000/svg" width="250" height="148">
<path d="M0 0 C82.5 0 165 0 250 0 C250 48.84 250 97.68 250 148 C167.5 148 85 148 0 148 C0 99.16 0 50.32 0 0 Z " fill="#191919" transform="translate(0,0)"/>
<path d="M0 0 C1.46098845 2.9219769 1.11134901 5.49893475 1.09765625 8.7578125 C1.0962413 9.42086395 1.09482635 10.08391541 1.09336853 10.76705933 C1.08776754 12.88641863 1.075215 15.00567259 1.0625 17.125 C1.05748512 18.56119639 1.05292219 19.99739444 1.04882812 21.43359375 C1.03779782 24.95576345 1.02053259 28.47787145 1 32 C-3.56168205 32.36527435 -8.12441072 32.71528408 -12.6875 33.0625 C-13.98107422 33.16626953 -15.27464844 33.27003906 -16.60742188 33.37695312 C-17.85458984 33.47041016 -19.10175781 33.56386719 -20.38671875 33.66015625 C-22.10701294 33.79369507 -22.10701294 33.79369507 -23.86206055 33.92993164 C-26.78172903 33.99512614 -29.16133203 33.58879094 -32 33 C-32.99 33.495 -32.99 33.495 -34 34 C-35.9981051 34.09649939 -37.9995718 34.12980872 -40 34.125 C-41.60875 34.12886719 -41.60875 34.12886719 -43.25 34.1328125 C-46 34 -46 34 -48 33 C-48 32.34 -48 31.68 -48 31 C-48.61875 30.9175 -49.2375 30.835 -49.875 30.75 C-52 30 -52 30 -53.12109375 28.26171875 C-54.67369957 24.26634643 -54.19186264 20.22097814 -54 16 C-53.979375 15.030625 -53.95875 14.06125 -53.9375 13.0625 C-53 11 -53 11 -49.9375 9.1875 C-45.82564038 7.7007739 -42.34192275 7.55844853 -38 8 C-37.01 9.485 -37.01 9.485 -36 11 C-32.43230448 11.73606499 -32.43230448 11.73606499 -29 12 C-28.67 10.68 -28.34 9.36 -28 8 C-22.39 8 -16.78 8 -11 8 C-9.18752079 11.62495842 -8.75135958 12.5951706 -8.8046875 16.328125 C-8.81113281 17.12734375 -8.81757813 17.9265625 -8.82421875 18.75 C-8.84097656 19.575 -8.85773438 20.4 -8.875 21.25 C-8.88402344 22.09046875 -8.89304688 22.9309375 -8.90234375 23.796875 C-8.92584183 25.86470604 -8.96171092 27.93238995 -9 30 C-8.34 30 -7.68 30 -7 30 C-7.01571045 29.16227051 -7.0314209 28.32454102 -7.04760742 27.46142578 C-7.09870007 24.35663123 -7.13633234 21.25205069 -7.16479492 18.14697266 C-7.18732251 16.14080626 -7.2254357 14.13483474 -7.26367188 12.12890625 C-7.27333984 10.87207031 -7.28300781 9.61523438 -7.29296875 8.3203125 C-7.3086792 7.15773926 -7.32438965 5.99516602 -7.34057617 4.79736328 C-7.17199097 3.41266846 -7.17199097 3.41266846 -7 2 C-4 0 -4 0 0 0 Z " fill="#0F1E32" transform="translate(166,50)"/>
<path d="M0 0 C2.97 0 5.94 0 9 0 C11.71970716 5.25184831 14.01095551 10.43067543 16 16 C17.87366801 13.18949799 19.19002208 10.51430871 20.5625 7.4375 C22.96202532 2.07594937 22.96202532 2.07594937 24 0 C26.97 0 29.94 0 33 0 C33 9.57 33 19.14 33 29 C30.69 29 28.38 29 26 29 C25.67 24.05 25.34 19.1 25 14 C23.02 18.95 21.04 23.9 19 29 C17.35 29 15.7 29 14 29 C12.02 24.05 10.04 19.1 8 14 C7.67 18.95 7.34 23.9 7 29 C4.69 29 2.38 29 0 29 C0 19.43 0 9.86 0 0 Z " fill="#D8D8D8" transform="translate(25,53)"/>
<path d="M0 0 C2.536875 -0.061875 5.07375 -0.12375 7.6875 -0.1875 C8.47729248 -0.21481201 9.26708496 -0.24212402 10.08081055 -0.27026367 C14.61453298 -0.32357461 17.40816874 0.21088861 21 3 C23.32250123 6.2072636 23.4044954 9.11684414 23 13 C21.625 15.375 21.625 15.375 20 17 C19.34 17 18.68 17 18 17 C18.3609375 17.69867188 18.721875 18.39734375 19.09375 19.1171875 C19.5578125 20.02726562 20.021875 20.93734375 20.5 21.875 C20.9640625 22.77992187 21.428125 23.68484375 21.90625 24.6171875 C23 27 23 27 23 29 C20.36 29 17.72 29 15 29 C14.75765625 28.36191406 14.5153125 27.72382812 14.265625 27.06640625 C13.93046875 26.24011719 13.5953125 25.41382812 13.25 24.5625 C12.92515625 23.73878906 12.6003125 22.91507813 12.265625 22.06640625 C11.03289175 19.51194599 11.03289175 19.51194599 7 19 C7 22.3 7 25.6 7 29 C4.69 29 2.38 29 0 29 C0 19.43 0 9.86 0 0 Z " fill="#4F80D2" transform="translate(86,53)"/>
<path d="M0 0 C5.33333333 0 10.66666667 0 16 0 C16.66 1.32 17.32 2.64 18 4 C18.66 4 19.32 4 20 4 C20.33 3.01 20.66 2.02 21 1 C23.84083641 -0.42041821 25.85477278 -0.31452272 29 0 C31.1796875 1.44140625 31.1796875 1.44140625 33 4 C33.48843018 7.09826794 33.37701594 10.12345374 33.25 13.25 C33.23195312 14.09046875 33.21390625 14.9309375 33.1953125 15.796875 C33.14830798 17.86507395 33.07656724 19.93268441 33 22 C30.69 22 28.38 22 26 22 C26 16.72 26 11.44 26 6 C24.35 6.33 22.7 6.66 21 7 C20.67 11.95 20.34 16.9 20 22 C17.69 22 15.38 22 13 22 C13 16.72 13 11.44 13 6 C11.35 6.33 9.7 6.66 8 7 C7.67 11.95 7.34 16.9 7 22 C4.69 22 2.38 22 0 22 C0 14.74 0 7.48 0 0 Z " fill="#4D79C1" transform="translate(171,60)"/>
<path d="M0 0 C3.58552881 1.63687185 4.79315055 2.68972583 7 6 C7.14245897 8.76655324 7.18769445 11.42653306 7.125 14.1875 C7.11597656 14.93708984 7.10695312 15.68667969 7.09765625 16.45898438 C7.07412578 18.30612654 7.03825561 20.15310412 7 22 C3.66666667 22 0.33333333 22 -3 22 C-3.65097656 22.02320312 -4.30195313 22.04640625 -4.97265625 22.0703125 C-6.98121994 22.12287305 -8.99176042 22.06375364 -11 22 C-13 20 -13 20 -13.265625 18.125 C-13.26046875 17.42375 -13.2553125 16.7225 -13.25 16 C-13.25515625 15.29875 -13.2603125 14.5975 -13.265625 13.875 C-13 12 -13 12 -11 10 C-8.6171875 9.5859375 -8.6171875 9.5859375 -5.875 9.375 C-4.96492187 9.30023438 -4.05484375 9.22546875 -3.1171875 9.1484375 C-2.06917969 9.07496094 -2.06917969 9.07496094 -1 9 C-1 7.68 -1 6.36 -1 5 C-2.65 5 -4.3 5 -6 5 C-6 5.66 -6 6.32 -6 7 C-8.31 7 -10.62 7 -13 7 C-10.66812626 0.18375367 -6.90485515 -0.89007898 0 0 Z " fill="#4B80D2" transform="translate(149,60)"/>
<path d="M0 0 C3.2591905 1.35638895 6.36669266 2.73338531 8 6 C8 8.31 8 10.62 8 13 C3.38 13 -1.24 13 -6 13 C-5.67 13.99 -5.34 14.98 -5 16 C-3.33388095 16.042721 -1.66617115 16.04063832 0 16 C0.33 15.67 0.66 15.34 1 15 C2.99958364 14.95919217 5.00045254 14.95745644 7 15 C6.6875 17.375 6.6875 17.375 6 20 C2.77252945 22.15164703 1.79494361 22.27245079 -1.9375 22.25 C-2.79214844 22.25515625 -3.64679688 22.2603125 -4.52734375 22.265625 C-7.21416193 21.97699366 -8.77048505 21.52165599 -11 20 C-13.86617289 15.75550829 -13.66970776 10.92713569 -13 6 C-9.4740286 0.24091338 -6.61548099 -0.54225254 0 0 Z " fill="#4682DC" transform="translate(125,60)"/>
<path d="M0 0 C4.14833175 1.79132507 6.14086598 3.89033531 8 8 C8 9.65 8 11.3 8 13 C3.05 13 -1.9 13 -7 13 C-6.01 14.485 -6.01 14.485 -5 16 C-2.45792029 16.33343551 -2.45792029 16.33343551 0 16 C0.33 15.67 0.66 15.34 1 15 C2.99958364 14.95919217 5.00045254 14.95745644 7 15 C6.63611322 17.63817913 6.24873446 18.77082893 4.26171875 20.6015625 C0.35433428 23.01752734 -3.57113887 22.85142888 -8 22 C-11.56069065 19.29387511 -12.66536439 17.89023898 -13.43359375 13.55078125 C-13.64773884 9.20947633 -13.42473974 6.69374157 -11.125 2.9375 C-7.45699529 -0.40685724 -4.91549687 -0.33325402 0 0 Z " fill="#D9D9D9" transform="translate(75,60)"/>
<path d="M0 0 C2.125 1.3125 2.125 1.3125 2.9375 3.9375 C2.999375 4.72125 3.06125 5.505 3.125 6.3125 C-1.34339215 6.52528058 -4.69762526 5.90388085 -8.875 4.3125 C-8.875 5.3025 -8.875 6.2925 -8.875 7.3125 C-8.27171875 7.42207031 -7.6684375 7.53164062 -7.046875 7.64453125 C0.89125659 9.21935413 0.89125659 9.21935413 4.125 12.3125 C3.62733954 15.99518739 3.06214041 17.96278767 0.125 20.3125 C-2.45508592 21.60254296 -4.43241574 21.51660224 -7.3125 21.5625 C-8.76462891 21.60117188 -8.76462891 21.60117188 -10.24609375 21.640625 C-12.875 21.3125 -12.875 21.3125 -14.72265625 20.046875 C-15.875 18.3125 -15.875 18.3125 -15.875 14.3125 C-13.565 14.3125 -11.255 14.3125 -8.875 14.3125 C-8.875 14.9725 -8.875 15.6325 -8.875 16.3125 C-7.225 16.3125 -5.575 16.3125 -3.875 16.3125 C-4.6847439 14.12531487 -4.6847439 14.12531487 -6.87109375 13.56640625 C-8.49560528 13.10634458 -10.12060527 12.64800414 -11.74609375 12.19140625 C-13.875 11.3125 -13.875 11.3125 -15.875 8.3125 C-16.23967846 5.3950723 -16.35075659 3.94684213 -14.5625 1.5625 C-10.22346693 -1.65159857 -5.02738658 -1.20220114 0 0 Z " fill="#4F7AD0" transform="translate(223.875,60.6875)"/>
<path d="M0 0 C1.01416992 0.00483398 1.01416992 0.00483398 2.04882812 0.00976562 C4.02302734 -0.01537109 4.02302734 -0.01537109 6.03710938 -0.04101562 C9.87690052 0.33607052 11.7379568 0.949016 14.73632812 3.32226562 C15.73632812 5.32226562 16.73632812 7.32226562 17.73632812 9.32226562 C19.8132339 10.28270665 19.8132339 10.28270665 21.73632812 10.32226562 C21.07632813 10.32226562 20.41632813 10.32226562 19.73632812 10.32226562 C19.70927504 12.73900786 19.68946375 15.15544503 19.67382812 17.57226562 C19.66544922 18.25417969 19.65707031 18.93609375 19.6484375 19.63867188 C19.56800211 24.57911522 19.56800211 24.57911522 20.73632812 29.32226562 C22.72010482 30.60663297 22.72010482 30.60663297 24.73632812 31.32226562 C11.46046606 35.18433459 11.46046606 35.18433459 5.73632812 32.32226562 C5.14277199 29.67366136 4.99423544 27.0302924 4.73632812 24.32226562 C7.73632812 27.94726562 7.73632812 27.94726562 7.73632812 31.32226562 C10.37632813 31.32226562 13.01632813 31.32226562 15.73632812 31.32226562 C15.19492188 30.27425781 15.19492188 30.27425781 14.64257812 29.20507812 C14.17851563 28.295 13.71445313 27.38492188 13.23632812 26.44726562 C12.77226563 25.54234375 12.30820313 24.63742188 11.83007812 23.70507812 C10.73632812 21.32226562 10.73632812 21.32226562 10.73632812 19.32226562 C11.39632812 18.74476562 12.05632812 18.16726562 12.73632812 17.57226562 C15.00886282 15.44351138 15.00886282 15.44351138 15.11132812 12.32226562 C14.74629979 9.40203895 14.43660002 7.70264628 12.73632812 5.32226562 C9.00553899 2.76667507 4.85365202 2.8824525 0.48632812 2.69726562 C-0.25875 2.65859375 -1.00382812 2.61992188 -1.77148438 2.58007812 C-3.60182428 2.48621454 -5.43271331 2.40316845 -7.26367188 2.32226562 C-4.80782949 -0.13357676 -3.36212682 0.0367994 0 0 Z " fill="#13202F" transform="translate(93.263671875,50.677734375)"/>
<path d="M0 0 C2.31 0 4.62 0 7 0 C7 9.57 7 19.14 7 29 C4.69 29 2.38 29 0 29 C0 19.43 0 9.86 0 0 Z " fill="#4482DC" transform="translate(160,53)"/>
<path d="M0 0 C2 2 2 2 2.22705078 4.88916016 C2.21657715 6.09362793 2.20610352 7.2980957 2.1953125 8.5390625 C2.18886719 9.84101562 2.18242188 11.14296875 2.17578125 12.484375 C2.15906929 13.86458595 2.14213939 15.24479429 2.125 16.625 C2.11497006 18.01301452 2.10584423 19.40103589 2.09765625 20.7890625 C2.07401863 24.19288026 2.04106867 27.59635506 2 31 C4.31 31 6.62 31 9 31 C9 27.7 9 24.4 9 21 C10.65 21.33 12.3 21.66 14 22 C13.67 22.66 13.34 23.32 13 24 C12.34 24 11.68 24 11 24 C11.33 26.64 11.66 29.28 12 32 C9.11788698 32.96070434 7.30149956 33.10581883 4.3125 33.0625 C3.10013672 33.04896484 3.10013672 33.04896484 1.86328125 33.03515625 C1.24839844 33.02355469 0.63351563 33.01195312 0 33 C-0.33 31.68 -0.66 30.36 -1 29 C-1.66 29 -2.32 29 -3 29 C-2.67 27.35 -2.34 25.7 -2 24 C-3.051875 24.33 -4.10375 24.66 -5.1875 25 C-8.38873357 25.83966782 -10.7411008 26.19750904 -14 26 C-14.66 24.68 -15.32 23.36 -16 22 C-11.05 22 -6.1 22 -1 22 C-1.7115625 19.834375 -1.7115625 19.834375 -2.4375 17.625 C-2.70433594 16.81289062 -2.97117187 16.00078125 -3.24609375 15.1640625 C-3.95179729 12.98968201 -3.95179729 12.98968201 -5 11 C-1.125 12.75 -1.125 12.75 0 15 C0 10.05 0 5.1 0 0 Z " fill="#141F25" transform="translate(84,51)"/>
<path d="M0 0 C3.25781712 1.36493524 6.36494331 2.72988662 8 6 C8 8.31 8 10.62 8 13 C3.38 13 -1.24 13 -6 13 C-6.33 13.66 -6.66 14.32 -7 15 C-7 14.01 -7 13.02 -7 12 C-6.24074219 11.96261719 -5.48148437 11.92523438 -4.69921875 11.88671875 C-3.70535156 11.82097656 -2.71148437 11.75523438 -1.6875 11.6875 C-0.70136719 11.62949219 0.28476563 11.57148437 1.30078125 11.51171875 C4.24384457 10.95377187 5.18182999 10.31459868 7 8 C6.34 8 5.68 8 5 8 C5 7.34 5 6.68 5 6 C4.34 6 3.68 6 3 6 C2.67 6.99 2.34 7.98 2 9 C-1.47325181 10.1577506 -4.36067448 10.06866652 -8 10 C-8.33 9.01 -8.66 8.02 -9 7 C-8.34 6.01 -7.68 5.02 -7 4 C-8.65 4.66 -10.3 5.32 -12 6 C-9.45639135 0.13013389 -6.16437867 -0.61643787 0 0 Z " fill="#4F7FD1" transform="translate(125,60)"/>
<path d="M0 0 C0.66 1.32 1.32 2.64 2 4 C2.66 2.68 3.32 1.36 4 0 C4.12375 1.0725 4.2475 2.145 4.375 3.25 C4.81001307 5.23562266 4.81001307 5.23562266 6 7 C9.1845878 8.82955623 12.4874601 9.95660715 16 11 C16 11.66 16 12.32 16 13 C14.35 13 12.7 13 11 13 C11 12.34 11 11.68 11 11 C8.69 11 6.38 11 4 11 C3.67 12.32 3.34 13.64 3 15 C2.67 14.34 2.34 13.68 2 13 C2 14.98 2 16.96 2 19 C-0.24512262 20.12256131 -1.51456649 20.13413762 -4 20.125 C-5.051875 20.12886719 -5.051875 20.12886719 -6.125 20.1328125 C-8 20 -8 20 -10 19 C-9.34 13.72 -8.68 8.44 -8 3 C-9.32 2.67 -10.64 2.34 -12 2 C-10.35 2 -8.7 2 -7 2 C-7 7.28 -7 12.56 -7 18 C-4.69 18 -2.38 18 0 18 C0 12.06 0 6.12 0 0 Z " fill="#0E1F32" transform="translate(204,64)"/>
<path d="M0 0 C2.09782787 2.09782787 2.6509396 3.3799207 3.625 6.125 C3.88539062 6.84945312 4.14578125 7.57390625 4.4140625 8.3203125 C4.70410156 9.15175781 4.70410156 9.15175781 5 10 C5.66 10 6.32 10 7 10 C6.814375 10.94875 6.62875 11.8975 6.4375 12.875 C5.71313368 15.89868793 5.71313368 15.89868793 7 18 C7.66 16.68 8.32 15.36 9 14 C9.66 14 10.32 14 11 14 C10.01 16.97 9.02 19.94 8 23 C6.35 23 4.7 23 3 23 C1.02 17.72 -0.96 12.44 -3 7 C-2.34 7 -1.68 7 -1 7 C-1.309375 5.824375 -1.309375 5.824375 -1.625 4.625 C-1.74875 3.75875 -1.8725 2.8925 -2 2 C-1.34 1.34 -0.68 0.68 0 0 Z " fill="#D9D9D9" transform="translate(36,59)"/>
<path d="M0 0 C8.75 -0.125 8.75 -0.125 11 1 C11 1.66 11 2.32 11 3 C12.32 3.66 13.64 4.32 15 5 C13.125 11.875 13.125 11.875 12 13 C9.66702567 13.04092937 7.33294775 13.04241723 5 13 C5 9.37 5 5.74 5 2 C3.68 2 2.36 2 1 2 C1 4.97 1 7.94 1 11 C0.67 11 0.34 11 0 11 C0 7.37 0 3.74 0 0 Z " fill="#4D7CC7" transform="translate(87,54)"/>
<path d="M0 0 C0 6.93 0 13.86 0 21 C-1.65 21 -3.3 21 -5 21 C-5 14.4 -5 7.8 -5 1 C-1 0 -1 0 0 0 Z " fill="#4D81D4" transform="translate(177,60)"/>
<path d="M0 0 C2.31 0 4.62 0 7 0 C7 9.57 7 19.14 7 29 C4.69 29 2.38 29 0 29 C0 19.43 0 9.86 0 0 Z M1 1 C1 9.91 1 18.82 1 28 C2.32 27.67 3.64 27.34 5 27 C5 18.75 5 10.5 5 2 C3.68 1.67 2.36 1.34 1 1 Z " fill="#557ABF" transform="translate(160,53)"/>
<path d="M0 0 C2 2 2 2 2.22705078 3.87939453 C2.21134033 4.99483643 2.21134033 4.99483643 2.1953125 6.1328125 C2.18564453 7.34130859 2.18564453 7.34130859 2.17578125 8.57421875 C2.15902344 9.41597656 2.14226562 10.25773437 2.125 11.125 C2.11597656 11.97449219 2.10695312 12.82398437 2.09765625 13.69921875 C2.07405647 15.79959884 2.03818483 17.89983444 2 20 C0.68 20 -0.64 20 -2 20 C-2.06058594 19.09636719 -2.12117187 18.19273438 -2.18359375 17.26171875 C-2.26738281 16.08222656 -2.35117188 14.90273437 -2.4375 13.6875 C-2.51871094 12.51574219 -2.59992188 11.34398438 -2.68359375 10.13671875 C-2.8867371 6.97409042 -2.8867371 6.97409042 -4 4 C-6.01508358 3.26676204 -6.01508358 3.26676204 -8 3 C-8 2.34 -8 1.68 -8 1 C-5.23749964 -0.38125018 -3.05268901 -0.19079306 0 0 Z " fill="#4A7EE3" transform="translate(201,61)"/>
<path d="M0 0 C0.63808594 0.08378906 1.27617188 0.16757813 1.93359375 0.25390625 C3.17302734 0.40666016 3.17302734 0.40666016 4.4375 0.5625 C5.26121094 0.66691406 6.08492187 0.77132812 6.93359375 0.87890625 C7.61550781 0.91886719 8.29742187 0.95882812 9 1 C9.33 0.67 9.66 0.34 10 0 C11.99958364 -0.04080783 14.00045254 -0.04254356 16 0 C15.63641299 2.63600583 15.24645089 3.7718664 13.265625 5.60546875 C9.40691708 7.98057001 5.37758521 7.81443446 1 7 C-1.625 4.5 -1.625 4.5 -3 2 C-2.01 2 -1.02 2 0 2 C0 1.34 0 0.68 0 0 Z " fill="#D9D9D9" transform="translate(66,75)"/>
<path d="M0 0 C2.81288705 0.14019692 5.62516885 0.28687955 8.4375 0.4375 C9.23994141 0.47681641 10.04238281 0.51613281 10.86914062 0.55664062 C16.88671875 0.88671875 16.88671875 0.88671875 18 2 C19.051875 1.649375 20.10375 1.29875 21.1875 0.9375 C24.8014154 0.04883228 26.53364878 -0.12146657 30 1 C31 2 31 2 31.0625 4.5625 C31.041875 5.366875 31.02125 6.17125 31 7 C30.46375 6.505 29.9275 6.01 29.375 5.5 C26.33326715 3.57890557 24.53950857 3.54814784 21 4 C19.2488427 5.4166747 19.2488427 5.4166747 18 7 C17.34 7 16.68 7 16 7 C15.34 6.01 14.68 5.02 14 4 C12.02252878 3.63702064 12.02252878 3.63702064 9.875 3.8125 C8.59625 3.874375 7.3175 3.93625 6 4 C5.67 4.66 5.34 5.32 5 6 C5 5.01 5 4.02 5 3 C3.35 3 1.7 3 0 3 C0 2.01 0 1.02 0 0 Z " fill="#0E1F31" transform="translate(173,57)"/>
<path d="M0 0 C0.33 0 0.66 0 1 0 C1 2.31 1 4.62 1 7 C1.99 7 2.98 7 4 7 C4 13.93 4 20.86 4 28 C2.68 28 1.36 28 0 28 C0 18.76 0 9.52 0 0 Z " fill="#0B1A30" transform="translate(167,54)"/>
<path d="M0 0 C2.536875 -0.061875 5.07375 -0.12375 7.6875 -0.1875 C8.47729248 -0.21481201 9.26708496 -0.24212402 10.08081055 -0.27026367 C14.61453298 -0.32357461 17.40816874 0.21088861 21 3 C23.33287288 6.22158636 23.17683757 9.10957355 23 13 C22.01 13.495 22.01 13.495 21 14 C19.8422494 10.52674819 19.93133348 7.63932552 20 4 C17.36 4 14.72 4 12 4 C12 3.34 12 2.68 12 2 C8.37 1.67 4.74 1.34 1 1 C1 10.24 1 19.48 1 29 C0.67 29 0.34 29 0 29 C0 19.43 0 9.86 0 0 Z " fill="#4E72B4" transform="translate(86,53)"/>
<path d="M0 0 C0.66 0 1.32 0 2 0 C2 1.98 2 3.96 2 6 C6.71403788 5.52060632 10.66579301 5.03165952 15 3 C15 4.65 15 6.3 15 8 C9.59005789 10.33943443 4.81205904 10 -1 10 C-2.15837626 5.94568308 -1.83691257 3.78187881 0 0 Z " fill="#4E73C6" transform="translate(139,72)"/>
<path d="M0 0 C3.875 1.875 3.875 1.875 5 3 C7.54756104 3.28306234 10.09510022 3.44815786 12.65234375 3.62109375 C15 4 15 4 17 6 C14.525 5.505 14.525 5.505 12 5 C12 6.32 12 7.64 12 9 C10.02 9 8.04 9 6 9 C6 8.67 6 8.34 6 8 C3.65466049 7.23043864 3.65466049 7.23043864 1 7 C-0.8354799 8.33378575 -0.8354799 8.33378575 -2 10 C-2 9.34 -2 8.68 -2 8 C-3.65 8 -5.3 8 -7 8 C-6.01 6.68 -5.02 5.36 -4 4 C-3.67 4.99 -3.34 5.98 -3 7 C-2.01 4.69 -1.02 2.38 0 0 Z " fill="#212121" transform="translate(62,78)"/>
<path d="M0 0 C0 4.62 0 9.24 0 14 C-1.98 14 -3.96 14 -6 14 C-6 10.04 -6 6.08 -6 2 C-2 0 -2 0 0 0 Z " fill="#E1E1E1" transform="translate(57,68)"/>
<path d="M0 0 C3.875 3.75 3.875 3.75 5 6 C5.66 6 6.32 6 7 6 C7.33 5.01 7.66 4.02 8 3 C8.67154933 4.28913487 9.33708859 5.58140204 10 6.875 C10.556875 7.95394531 10.556875 7.95394531 11.125 9.0546875 C12 11 12 11 12 13 C9.36 13 6.72 13 4 13 C3.74605469 12.37351562 3.49210937 11.74703125 3.23046875 11.1015625 C2.88628906 10.28429687 2.54210937 9.46703125 2.1875 8.625 C1.85105469 7.81289062 1.51460938 7.00078125 1.16796875 6.1640625 C0.05560918 3.69852542 0.05560918 3.69852542 -3 2 C-2.01 1.34 -1.02 0.68 0 0 Z " fill="#5178C0" transform="translate(97,69)"/>
<path d="M0 0 C4.35640363 -0.26402446 7.92988794 0.41717864 12 2 C14.73897267 4.99575136 15.0088886 6.49335007 14.9375 10.5625 C13.93464909 14.23962001 12.92447412 15.64155313 10 18 C9.01 17.34 8.02 16.68 7 16 C8.32 15.67 9.64 15.34 11 15 C11.33 12.69 11.66 10.38 12 8 C8.14522751 5.43015167 4.47959418 4.14185734 0 3 C0 2.01 0 1.02 0 0 Z " fill="#0B1A35" transform="translate(215,65)"/>
<path d="M0 0 C0.8971875 0.309375 0.8971875 0.309375 1.8125 0.625 C0.3275 2.11 0.3275 2.11 -1.1875 3.625 C-0.23875 3.58375 0.71 3.5425 1.6875 3.5 C4.8125 3.625 4.8125 3.625 6.8125 5.625 C6.8125 6.615 6.8125 7.605 6.8125 8.625 C3.33924819 9.7827506 0.45182552 9.69366652 -3.1875 9.625 C-3.5175 8.635 -3.8475 7.645 -4.1875 6.625 C-3.5275 5.635 -2.8675 4.645 -2.1875 3.625 C-3.8375 4.285 -5.4875 4.945 -7.1875 5.625 C-5.69046729 2.17030914 -4.27938051 -0.73360809 0 0 Z " fill="#4973B6" transform="translate(120.1875,60.375)"/>
<path d="M0 0 C2.05494031 3.08241046 3.36343791 6.00614832 4.75 9.4375 C5.21921875 10.57058594 5.6884375 11.70367187 6.171875 12.87109375 C7 16 7 16 6.140625 18.41015625 C5.76421875 18.93480469 5.3878125 19.45945312 5 20 C4.34 19.67 3.68 19.34 3 19 C2.67 19.66 2.34 20.32 2 21 C2.33 19.02 2.66 17.04 3 15 C2.01 15.99 1.02 16.98 0 18 C0 12.06 0 6.12 0 0 Z " fill="#1F1F1F" transform="translate(32,64)"/>
<path d="M0 0 C0.33 0 0.66 0 1 0 C1.05380578 2.79192205 1.09357669 5.5828141 1.125 8.375 C1.15013672 9.56609375 1.15013672 9.56609375 1.17578125 10.78125 C1.19335473 12.85492015 1.10335168 14.92883241 1 17 C0.34 17.66 -0.32 18.32 -1 19 C-1.66 18.34 -2.32 17.68 -3 17 C-3.99 17 -4.98 17 -6 17 C-4.33846988 11.14340094 -2.52958084 5.5409866 0 0 Z " fill="#1F1F1F" transform="translate(50,65)"/>
<path d="M0 0 C1.2065625 0.0309375 1.2065625 0.0309375 2.4375 0.0625 C2.7675 1.3825 3.0975 2.7025 3.4375 4.0625 C1.1275 4.3925 -1.1825 4.7225 -3.5625 5.0625 C-3.5625 5.3925 -3.5625 5.7225 -3.5625 6.0625 C0.7275 6.3925 5.0175 6.7225 9.4375 7.0625 C9.7675 5.7425 10.0975 4.4225 10.4375 3.0625 C10.4375 4.7125 10.4375 6.3625 10.4375 8.0625 C7.81254621 8.22992302 5.18754205 8.3964717 2.5625 8.5625 C1.44294922 8.63404297 1.44294922 8.63404297 0.30078125 8.70703125 C-5.3359375 9.0625 -5.3359375 9.0625 -7.5625 9.0625 C-8.5525 9.5575 -8.5525 9.5575 -9.5625 10.0625 C-9.2840625 8.886875 -9.2840625 8.886875 -9 7.6875 C-8.30287734 5.09160225 -8.30287734 5.09160225 -9.5625 3.0625 C-8.1084375 2.5984375 -8.1084375 2.5984375 -6.625 2.125 C-0.53780864 0.01311728 -0.53780864 0.01311728 0 0 Z " fill="#C6C4C7" transform="translate(72.5625,64.9375)"/>
<path d="M0 0 C0.33 0.99 0.66 1.98 1 3 C2.975428 3.69692407 2.975428 3.69692407 5.3125 4 C8.92012919 4.67786663 11.27809313 5.39643691 14 8 C13.67 9.32 13.34 10.64 13 12 C12.67 10.68 12.34 9.36 12 8 C10.35 8 8.7 8 7 8 C6.67 9.32 6.34 10.64 6 12 C5.67 11.34 5.34 10.68 5 10 C2.88672575 9.09274566 2.88672575 9.09274566 0.4375 8.375 C-0.38878906 8.11460938 -1.21507812 7.85421875 -2.06640625 7.5859375 C-2.70449219 7.39257812 -3.34257812 7.19921875 -4 7 C-4 6.01 -4 5.02 -4 4 C-3.34 3.67 -2.68 3.34 -2 3 C-1.67 4.32 -1.34 5.64 -1 7 C0.65 7 2.3 7 4 7 C4 6.34 4 5.68 4 5 C2.35 4.67 0.7 4.34 -1 4 C-0.67 2.68 -0.34 1.36 0 0 Z " fill="#4776BA" transform="translate(214,65)"/>
<path d="M0 0 C1.32 0 2.64 0 4 0 C4 0.99 4 1.98 4 3 C7.465 2.505 7.465 2.505 11 2 C10.125 6.875 10.125 6.875 9 8 C7.00041636 8.04080783 4.99954746 8.04254356 3 8 C3 6.02 3 4.04 3 2 C2.01 2.495 2.01 2.495 1 3 C0.53476937 4.89533342 0.53476937 4.89533342 0.375 7.0625 C0.25125 8.361875 0.1275 9.66125 0 11 C-0.66 10.67 -1.32 10.34 -2 10 C-2.1953125 3.9453125 -2.1953125 3.9453125 -2 2 C-1.34 1.34 -0.68 0.68 0 0 Z " fill="#4A74B5" transform="translate(138,70)"/>
<path d="M0 0 C1.32 0 2.64 0 4 0 C4.22127098 2.29045368 4.4266504 4.58244764 4.625 6.875 C4.74101563 8.15117188 4.85703125 9.42734375 4.9765625 10.7421875 C4.98429687 11.81726563 4.99203125 12.89234375 5 14 C4.34 14.66 3.68 15.32 3 16 C2.01 16 1.02 16 0 16 C0 10.72 0 5.44 0 0 Z " fill="#4282E5" transform="translate(88,56)"/>
<path d="M0 0 C2.33294775 -0.04241723 4.66702567 -0.04092937 7 0 C8 1 8 1 8.1875 3.4375 C8 6 8 6 6 8 C2.875 8.125 2.875 8.125 0 8 C0 5.36 0 2.72 0 0 Z " fill="#152D56" transform="translate(93,59)"/>
<path d="M0 0 C1.65 0 3.3 0 5 0 C5 5.28 5 10.56 5 16 C6.98 16 8.96 16 11 16 C10.34 16.66 9.68 17.32 9 18 C6.375 17.625 6.375 17.625 4 17 C2.89629957 13.6888987 3.07326359 11.75251051 3.4375 8.3125 C3.53933594 7.31863281 3.64117187 6.32476562 3.74609375 5.30078125 C3.82988281 4.54152344 3.91367188 3.78226562 4 3 C2.68 3 1.36 3 0 3 C0 7.29 0 11.58 0 16 C-0.33 16 -0.66 16 -1 16 C-1.02685095 13.52076199 -1.04676547 11.0418116 -1.0625 8.5625 C-1.07506836 7.50192383 -1.07506836 7.50192383 -1.08789062 6.41992188 C-1.09653588 4.61306441 -1.05220011 2.80612397 -1 1 C-0.67 0.67 -0.34 0.34 0 0 Z " fill="#10223E" transform="translate(179,66)"/>
<path d="M0 0 C1.65 0 3.3 0 5 0 C3.68 0.33 2.36 0.66 1 1 C1 7.6 1 14.2 1 21 C2.65 21 4.3 21 6 21 C5.91621094 19.98679687 5.83242187 18.97359375 5.74609375 17.9296875 C5.64285159 16.57815379 5.5400082 15.22658958 5.4375 13.875 C5.38142578 13.20984375 5.32535156 12.5446875 5.26757812 11.859375 C4.96374143 7.7271959 5.14772469 4.05304259 6 0 C7.71948485 2.96948578 8.22039127 4.91452225 7.9765625 8.328125 C7.89921875 9.52695313 7.89921875 9.52695313 7.8203125 10.75 C7.75585938 11.575 7.69140625 12.4 7.625 13.25 C7.56828125 14.09046875 7.5115625 14.9309375 7.453125 15.796875 C7.31209668 17.86529042 7.15738212 19.9327646 7 22 C4.69 22 2.38 22 0 22 C0 14.74 0 7.48 0 0 Z " fill="#4B72AD" transform="translate(171,60)"/>
<path d="M0 0 C1.24652344 -0.02835938 2.49304688 -0.05671875 3.77734375 -0.0859375 C7.0625 0.375 7.0625 0.375 8.9921875 2.2265625 C10.26404691 4.77956497 10.29723547 6.55817442 10.0625 9.375 C8.0625 6.375 8.0625 6.375 8.0625 4.375 C1.2434916 2.72190705 -3.79569379 2.77979636 -9.9375 6.375 C-8.69108806 0.1429403 -5.99773693 0.06189615 0 0 Z " fill="#12223E" transform="translate(217.9375,57.625)"/>
<path d="M0 0 C1.65 0.33 3.3 0.66 5 1 C4.67 1.66 4.34 2.32 4 3 C3.34 3 2.68 3 2 3 C2.33 5.64 2.66 8.28 3 11 C0.11788698 11.96070434 -1.69850044 12.10581883 -4.6875 12.0625 C-5.89986328 12.04896484 -5.89986328 12.04896484 -7.13671875 12.03515625 C-8.05904297 12.01775391 -8.05904297 12.01775391 -9 12 C-8.67 9.69 -8.34 7.38 -8 5 C-7.67 5 -7.34 5 -7 5 C-7 6.65 -7 8.3 -7 10 C-4.69 10 -2.38 10 0 10 C0 6.7 0 3.4 0 0 Z " fill="#12223F" transform="translate(93,72)"/>
<path d="M0 0 C0.33 0 0.66 0 1 0 C1 5.28 1 10.56 1 16 C-0.98 16 -2.96 16 -5 16 C-4.01 15.34 -3.02 14.68 -2 14 C-1.27034634 11.43717258 -1.27034634 11.43717258 -1 9 C-1.78375 9.515625 -2.5675 10.03125 -3.375 10.5625 C-4.24125 11.036875 -5.1075 11.51125 -6 12 C-6.66 11.67 -7.32 11.34 -8 11 C-7.50628906 10.45730469 -7.01257813 9.91460937 -6.50390625 9.35546875 C-5.86324219 8.64003906 -5.22257813 7.92460938 -4.5625 7.1875 C-3.92441406 6.47980469 -3.28632813 5.77210937 -2.62890625 5.04296875 C-0.80913988 3.00103848 -0.80913988 3.00103848 0 0 Z " fill="#4C70BB" transform="translate(155,66)"/>
<path d="M0 0 C0.680625 -0.00515625 1.36125 -0.0103125 2.0625 -0.015625 C4 0.25 4 0.25 7 2.25 C4.36 2.58 1.72 2.91 -1 3.25 C-1.33 4.57 -1.66 5.89 -2 7.25 C-4.31 7.25 -6.62 7.25 -9 7.25 C-7.29331367 2.26122456 -5.47393986 -0.04146924 0 0 Z " fill="#4E77B9" transform="translate(145,59.75)"/>
<path d="M0 0 C1.01416992 0.00483398 1.01416992 0.00483398 2.04882812 0.00976562 C4.02302734 -0.01537109 4.02302734 -0.01537109 6.03710938 -0.04101562 C9.86405791 0.33480931 11.77061174 0.91611837 14.73632812 3.32226562 C15.54882812 6.50976563 15.54882812 6.50976563 15.73632812 9.32226562 C14.95257813 8.51789062 14.16882813 7.71351562 13.36132812 6.88476562 C9.30041095 2.92053695 6.05612478 3.04658134 0.61132812 2.75976562 C-0.14277344 2.71658203 -0.896875 2.67339844 -1.67382812 2.62890625 C-3.53689075 2.52278243 -5.40025712 2.42201562 -7.26367188 2.32226562 C-4.80782949 -0.13357676 -3.36212682 0.0367994 0 0 Z " fill="#0E2140" transform="translate(93.263671875,50.677734375)"/>
<path d="M0 0 C1.485 0.99 1.485 0.99 3 2 C5.38677076 2.29452584 7.78626094 2.4928217 10.1875 2.625 C11.45980469 2.69976562 12.73210937 2.77453125 14.04296875 2.8515625 C15.01878906 2.90054688 15.99460938 2.94953125 17 3 C16.67 3.99 16.34 4.98 16 6 C9.30403958 7.43484866 5.79424351 6.59058175 0 3 C0 2.01 0 1.02 0 0 Z " fill="#0E1D1C" transform="translate(208,79)"/>
<path d="M0 0 C8.23880597 -0.32309043 8.23880597 -0.32309043 12 2 C12.8125 4.625 12.8125 4.625 13 7 C8.78121808 7.19622241 5.82989106 6.80230168 2 5 C3.32 4.67 4.64 4.34 6 4 C5.67 3.34 5.34 2.68 5 2 C2.47266765 1.34444881 2.47266765 1.34444881 0 1 C0 0.67 0 0.34 0 0 Z " fill="#4D78B8" transform="translate(214,60)"/>
<path d="M0 0 C4.95 0 9.9 0 15 0 C15 1.98 15 3.96 15 6 C14.34 5.67 13.68 5.34 13 5 C13.33 4.01 13.66 3.02 14 2 C12.948125 2.33 11.89625 2.66 10.8125 3 C7.61126643 3.83966782 5.2588992 4.19750904 2 4 C1.34 2.68 0.68 1.36 0 0 Z " fill="#222224" transform="translate(68,73)"/>
<path d="M0 0 C1.65 0 3.3 0 5 0 C5 1.65 5 3.3 5 5 C0.38 5 -4.24 5 -9 5 C-9.33 4.01 -9.66 3.02 -10 2 C-6.66666667 2 -3.33333333 2 0 2 C0 1.34 0 0.68 0 0 Z " fill="#E3E2E2" transform="translate(77,67)"/>
<path d="M0 0 C0.99 0.33 1.98 0.66 3 1 C3 5.29 3 9.58 3 14 C2.01 14.33 1.02 14.66 0 15 C0 10.05 0 5.1 0 0 Z " fill="#4783DF" transform="translate(174,63)"/>
<path d="M0 0 C0.66 0 1.32 0 2 0 C2 0.66 2 1.32 2 2 C2.99 1.67 3.98 1.34 5 1 C5 1.66 5 2.32 5 3 C3.02 3.99 3.02 3.99 1 5 C1 6.32 1 7.64 1 9 C1.99 8.01 2.98 7.02 4 6 C4.33 7.32 4.66 8.64 5 10 C4.34 10 3.68 10 3 10 C3 10.66 3 11.32 3 12 C1.68 11.67 0.36 11.34 -1 11 C-1.02688151 9.35425434 -1.04634123 7.70838587 -1.0625 6.0625 C-1.07410156 5.14597656 -1.08570313 4.22945313 -1.09765625 3.28515625 C-1 1 -1 1 0 0 Z " fill="#E3E3E3" transform="translate(63,65)"/>
<path d="M0 0 C3 0.25 3 0.25 5 2.25 C5.22705078 4.12939453 5.22705078 4.12939453 5.1953125 6.3828125 C5.18564453 7.59130859 5.18564453 7.59130859 5.17578125 8.82421875 C5.15902344 9.66597656 5.14226562 10.50773437 5.125 11.375 C5.11597656 12.22449219 5.10695312 13.07398437 5.09765625 13.94921875 C5.07405647 16.04959884 5.03818483 18.14983444 5 20.25 C3.68 19.92 2.36 19.59 1 19.25 C1.99 19.25 2.98 19.25 4 19.25 C3.85975781 16.77039864 3.7130815 14.29147598 3.5625 11.8125 C3.52318359 11.10544922 3.48386719 10.39839844 3.44335938 9.66992188 C3.52375562 6.16309581 3.52375562 6.16309581 2 3.25 C-0.32817964 2.88239269 -2.6618385 2.54758419 -5 2.25 C-3 0.25 -3 0.25 0 0 Z " fill="#4983CE" transform="translate(198,60.75)"/>
<path d="M0 0 C1.32 0.66 2.64 1.32 4 2 C4 4.64 4 7.28 4 10 C3.4225 9.21625 2.845 8.4325 2.25 7.625 C-1.66747812 3.05460886 -5.0980994 2.68098853 -11 2 C-11 1.67 -11 1.34 -11 1 C-10.28972656 1.01160156 -9.57945312 1.02320313 -8.84765625 1.03515625 C-7.92855469 1.04417969 -7.00945312 1.05320313 -6.0625 1.0625 C-4.68771484 1.07990234 -4.68771484 1.07990234 -3.28515625 1.09765625 C-1.03406673 1.25949049 -1.03406673 1.25949049 0 0 Z " fill="#142440" transform="translate(153,58)"/>
<path d="M0 0 C1.4540625 0.0309375 1.4540625 0.0309375 2.9375 0.0625 C2.625 2.4375 2.625 2.4375 1.9375 5.0625 C-1.31332673 7.22971782 -2.35482153 7.33471018 -6.125 7.3125 C-7.00285156 7.31765625 -7.88070312 7.3228125 -8.78515625 7.328125 C-11.0625 7.0625 -11.0625 7.0625 -13.0625 5.0625 C-11.5465625 5.0934375 -11.5465625 5.0934375 -10 5.125 C-6.25922743 5.06562266 -2.75005102 4.66454915 0.9375 4.0625 C0.6075 3.4025 0.2775 2.7425 -0.0625 2.0625 C-2.08713255 1.41036708 -2.08713255 1.41036708 -4.0625 1.0625 C-3.0625 0.0625 -3.0625 0.0625 0 0 Z " fill="#5074C5" transform="translate(129.0625,74.9375)"/>
<path d="M0 0 C1.67542976 0.28604898 3.34385343 0.61781233 5 1 C6.125 5.75 6.125 5.75 5 8 C4.34 8 3.68 8 3 8 C3 7.34 3 6.68 3 6 C1.68 6.33 0.36 6.66 -1 7 C-1.04254356 5.00045254 -1.04080783 2.99958364 -1 1 C-0.67 0.67 -0.34 0.34 0 0 Z " fill="#4B82D6" transform="translate(221,72)"/>
<path d="M0 0 C0.99 0.33 1.98 0.66 3 1 C3 1.66 3 2.32 3 3 C1.41913952 3.36504603 -0.16483907 3.71660506 -1.75 4.0625 C-2.63171875 4.25972656 -3.5134375 4.45695312 -4.421875 4.66015625 C-6.98679028 4.99825872 -8.57091639 4.81158635 -11 4 C-11 3.34 -11 2.68 -11 2 C-10.06027344 1.90912109 -10.06027344 1.90912109 -9.1015625 1.81640625 C-7.87566406 1.69072266 -7.87566406 1.69072266 -6.625 1.5625 C-5.81289062 1.48128906 -5.00078125 1.40007812 -4.1640625 1.31640625 C-1.95727195 1.10909886 -1.95727195 1.10909886 0 0 Z " fill="#4E7FE0" transform="translate(127,76)"/>
<path d="M0 0 C2.67927341 4.01891012 2.15601248 6.24161923 2 11 C0.68 11 -0.64 11 -2 11 C-2.05399736 9.54207116 -2.09279177 8.08357288 -2.125 6.625 C-2.15980469 5.40683594 -2.15980469 5.40683594 -2.1953125 4.1640625 C-2 2 -2 2 0 0 Z " fill="#4681E2" transform="translate(187,69)"/>
<path d="M0 0 C2.97 0.495 2.97 0.495 6 1 C6.33 4.3 6.66 7.6 7 11 C6.34 9.68 5.68 8.36 5 7 C4.319375 6.690625 3.63875 6.38125 2.9375 6.0625 C2.298125 5.711875 1.65875 5.36125 1 5 C0.25 2.375 0.25 2.375 0 0 Z " fill="#4982E1" transform="translate(100,56)"/>
<path d="M0 0 C3.19902639 -0.08886184 5.92677456 0.08941469 9 1 C9 1.99 9 2.98 9 4 C6.35541621 5.32229189 4.32238699 5.09677194 1.375 5.0625 C0.37210938 5.05347656 -0.63078125 5.04445313 -1.6640625 5.03515625 C-2.43492187 5.02355469 -3.20578125 5.01195313 -4 5 C-4.33 4.34 -4.66 3.68 -5 3 C-2.36 3 0.28 3 3 3 C2.01 2.01 1.02 1.02 0 0 Z " fill="#4972BB" transform="translate(215,77)"/>
<path d="M0 0 C-0.99 0.495 -0.99 0.495 -2 1 C-2.33 1.99 -2.66 2.98 -3 4 C-1.35 4.33 0.3 4.66 2 5 C2 5.66 2 6.32 2 7 C0.35 7 -1.3 7 -3 7 C-3.33 5.68 -3.66 4.36 -4 3 C-4.33 3.66 -4.66 4.32 -5 5 C-5.66 5 -6.32 5 -7 5 C-7 3.35 -7 1.7 -7 0 C-3.86650268 -1.04449911 -3.01031744 -0.93423645 0 0 Z " fill="#4983E5" transform="translate(216,65)"/>
<path d="M0 0 C1.65 0 3.3 0 5 0 C5 1.32 5 2.64 5 4 C0.545 4.495 0.545 4.495 -4 5 C-4 4.34 -4 3.68 -4 3 C-4.99 2.67 -5.98 2.34 -7 2 C-4.69 2 -2.38 2 0 2 C0 1.34 0 0.68 0 0 Z " fill="#0C2843" transform="translate(143,65)"/>
<path d="M0 0 C-0.33 1.98 -0.66 3.96 -1 6 C-2.32 6 -3.64 6 -5 6 C-5 7.98 -5 9.96 -5 12 C-5.33 12 -5.66 12 -6 12 C-6.08090971 10.37581255 -6.13914995 8.75048255 -6.1875 7.125 C-6.22230469 6.22007813 -6.25710937 5.31515625 -6.29296875 4.3828125 C-6.19628906 3.59648438 -6.09960938 2.81015625 -6 2 C-3 0 -3 0 0 0 Z " fill="#4F79D1" transform="translate(118,64)"/>
<path d="M0 0 C0.66 0.33 1.32 0.66 2 1 C1.01 2.485 1.01 2.485 0 4 C-0.45394552 6.27912938 -0.45394552 6.27912938 -0.625 8.6875 C-0.69976562 9.49574219 -0.77453125 10.30398437 -0.8515625 11.13671875 C-0.90054688 11.75160156 -0.94953125 12.36648437 -1 13 C-1.66 13 -2.32 13 -3 13 C-3 11.35 -3 9.7 -3 8 C-3.66 8 -4.32 8 -5 8 C-4.64950425 4.75791433 -4.43778819 3.38472296 -1.9375 1.1875 C-1.298125 0.795625 -0.65875 0.40375 0 0 Z " fill="#313131" transform="translate(63,62)"/>
<path d="M0 0 C-0.66 2.31 -1.32 4.62 -2 7 C-3.32 7 -4.64 7 -6 7 C-6 6.34 -6 5.68 -6 5 C-6.66 4.67 -7.32 4.34 -8 4 C-3.375 0 -3.375 0 0 0 Z " fill="#D1D1D1" transform="translate(71,60)"/>
<path d="M0 0 C0.66 0 1.32 0 2 0 C2 1.98 2 3.96 2 6 C2.66 6 3.32 6 4 6 C3.67 6.66 3.34 7.32 3 8 C0.9375 8.625 0.9375 8.625 -1 9 C-2.0326802 6.21176345 -2.04509293 5.1322726 -1.0625 2.25 C-0.711875 1.5075 -0.36125 0.765 0 0 Z " fill="#4F81DB" transform="translate(139,72)"/>
<path d="M0 0 C2 2 2 2 2 9 C-2.62 9 -7.24 9 -12 9 C-12.33 9.66 -12.66 10.32 -13 11 C-13 10.01 -13 9.02 -13 8 C-12.22914062 7.93941406 -11.45828125 7.87882812 -10.6640625 7.81640625 C-9.66117187 7.73261719 -8.65828125 7.64882812 -7.625 7.5625 C-6.62726563 7.48128906 -5.62953125 7.40007812 -4.6015625 7.31640625 C-2.02072387 7.15034374 -2.02072387 7.15034374 0 6 C0 4.02 0 2.04 0 0 Z " fill="#4D65A4" transform="translate(131,64)"/>
<path d="M0 0 C0.99 0.33 1.98 0.66 3 1 C3.6875 3.0625 3.6875 3.0625 4 5 C3.34 5 2.68 5 2 5 C1.34 7.31 0.68 9.62 0 12 C-0.33 12 -0.66 12 -1 12 C-1.92470553 7.28400182 -2.22923777 4.32734391 0 0 Z " fill="#E3E3E3" transform="translate(43,68)"/>
<path d="M0 0 C0.80967438 2.91482778 1.21845993 4.46113217 0.0625 7.3125 C-0.4634375 8.1478125 -0.4634375 8.1478125 -1 9 C-3.89932357 6.60490662 -4.50168276 4.68754757 -5 1 C-3 0 -3 0 0 0 Z " fill="#242424" transform="translate(43,61)"/>
<path d="M0 0 C2.31 0 4.62 0 7 0 C6.34 1.65 5.68 3.3 5 5 C3.35 4.67 1.7 4.34 0 4 C0 2.68 0 1.36 0 0 Z " fill="#1D1525" transform="translate(178,86)"/>
<path d="M0 0 C0.66 0 1.32 0 2 0 C1.01 2.97 0.02 5.94 -1 9 C-2.65 9 -4.3 9 -6 9 C-5.6875 7.0625 -5.6875 7.0625 -5 5 C-4.01 4.67 -3.02 4.34 -2 4 C-0.79117904 1.99983534 -0.79117904 1.99983534 0 0 Z " fill="#D0D0D0" transform="translate(45,73)"/>
<path d="M0 0 C-0.33 1.65 -0.66 3.3 -1 5 C-4.75 6.125 -4.75 6.125 -7 5 C-7 4.01 -7 3.02 -7 2 C-2.25 0 -2.25 0 0 0 Z " fill="#112D4A" transform="translate(149,72)"/>
<path d="M0 0 C3.41021743 0.78697325 6.68885166 1.87119943 10 3 C10 3.33 10 3.66 10 4 C7.03 4 4.06 4 1 4 C1 4.66 1 5.32 1 6 C0.34 6 -0.32 6 -1 6 C-1.33 4.68 -1.66 3.36 -2 2 C-1.34 2 -0.68 2 0 2 C0 1.34 0 0.68 0 0 Z " fill="#4A79C2" transform="translate(115,74)"/>
<path d="M0 0 C1.65 0 3.3 0 5 0 C5.33 0.99 5.66 1.98 6 3 C7.32 3 8.64 3 10 3 C10.33 3.99 10.66 4.98 11 6 C7.37 5.01 3.74 4.02 0 3 C0 2.01 0 1.02 0 0 Z " fill="#182750" transform="translate(215,65)"/>
<path d="M0 0 C1.485 0.99 1.485 0.99 3 2 C3.99 2.33 4.98 2.66 6 3 C5.34 3 4.68 3 4 3 C3.67 5.31 3.34 7.62 3 10 C2.01 9.67 1.02 9.34 0 9 C0 6.03 0 3.06 0 0 Z " fill="#0E1C26" transform="translate(109,58)"/>
<path d="M0 0 C1.65 0 3.3 0 5 0 C5.33 1.32 5.66 2.64 6 4 C3.36 4 0.72 4 -2 4 C-1.34 2.68 -0.68 1.36 0 0 Z " fill="#3B3B3B" transform="translate(70,65)"/>
<path d="M0 0 C1.65 0.33 3.3 0.66 5 1 C5 2.32 5 3.64 5 5 C3.02 5 1.04 5 -1 5 C-0.67 3.35 -0.34 1.7 0 0 Z " fill="#151A23" transform="translate(95,61)"/>
<path d="M0 0 C0.845625 0.144375 1.69125 0.28875 2.5625 0.4375 C6.03593149 1.0058797 9.51445662 1.51202393 13 2 C11 4 11 4 7.625 4.375 C4 4 4 4 1.5625 2 C1.046875 1.34 0.53125 0.68 0 0 Z " fill="#111E10" transform="translate(114,82)"/>
<path d="M0 0 C2.35953094 2.35953094 2.49141413 3.77895617 3 7 C2.01 7.33 1.02 7.66 0 8 C-0.66 8.99 -1.32 9.98 -2 11 C-2.33 9.68 -2.66 8.36 -3 7 C-2.34 7 -1.68 7 -1 7 C-1.309375 5.824375 -1.309375 5.824375 -1.625 4.625 C-1.74875 3.75875 -1.8725 2.8925 -2 2 C-1.34 1.34 -0.68 0.68 0 0 Z " fill="#CECECE" transform="translate(36,59)"/>
<path d="M0 0 C1.32 0 2.64 0 4 0 C4.33 0.99 4.66 1.98 5 3 C4.67 3.66 4.34 4.32 4 5 C2.02 5 0.04 5 -2 5 C-1.34 3.35 -0.68 1.7 0 0 Z " fill="#E0E0E0" transform="translate(71,60)"/>
<path d="M0 0 C0 1.65 0 3.3 0 5 C-1.32 5.33 -2.64 5.66 -4 6 C-4 5.34 -4 4.68 -4 4 C-4.99 3.67 -5.98 3.34 -7 3 C-2.25 0 -2.25 0 0 0 Z " fill="#4B80DD" transform="translate(154,75)"/>
<path d="M0 0 C2.97 0.99 5.94 1.98 9 3 C9 3.66 9 4.32 9 5 C7.35 5 5.7 5 4 5 C4 4.34 4 3.68 4 3 C2.35 3 0.7 3 -1 3 C-0.67 2.01 -0.34 1.02 0 0 Z " fill="#0C203E" transform="translate(211,72)"/>
<path d="M0 0 C0.33 0 0.66 0 1 0 C1 5.61 1 11.22 1 17 C0.67 17 0.34 17 0 17 C-0.06058594 16.31292969 -0.12117188 15.62585938 -0.18359375 14.91796875 C-0.26738281 14.01691406 -0.35117187 13.11585937 -0.4375 12.1875 C-0.51871094 11.29417969 -0.59992187 10.40085937 -0.68359375 9.48046875 C-0.93489767 6.87256441 -0.93489767 6.87256441 -2 4 C-1.0625 1.8125 -1.0625 1.8125 0 0 Z " fill="#323232" transform="translate(50,65)"/>
<path d="M0 0 C1.65 0.33 3.3 0.66 5 1 C5.33 1.99 5.66 2.98 6 4 C3.69 4 1.38 4 -1 4 C-0.67 2.68 -0.34 1.36 0 0 Z " fill="#122844" transform="translate(120,65)"/>
<path d="M0 0 C0.99 0 1.98 0 3 0 C3 2.64 3 5.28 3 8 C2.01 8 1.02 8 0 8 C0 5.36 0 2.72 0 0 Z " fill="#4C7EE9" transform="translate(162,56)"/>
<path d="M0 0 C1.09054688 0.02320313 2.18109375 0.04640625 3.3046875 0.0703125 C4.40039062 0.08835938 5.49609375 0.10640625 6.625 0.125 C7.46804687 0.14820313 8.31109375 0.17140625 9.1796875 0.1953125 C9.1796875 0.5253125 9.1796875 0.8553125 9.1796875 1.1953125 C8.51582031 1.22109375 7.85195312 1.246875 7.16796875 1.2734375 C1.63527009 1.62882252 -1.78597325 2.02649528 -5.8203125 6.1953125 C-5.02802585 2.23387925 -4.38920598 0.30396163 0 0 Z " fill="#0F1E2E" transform="translate(213.8203125,57.8046875)"/>
<path d="M0 0 C0.33 0 0.66 0 1 0 C1 1.65 1 3.3 1 5 C3.31 5 5.62 5 8 5 C8 5.66 8 6.32 8 7 C5.03 7 2.06 7 -1 7 C-0.67 4.69 -0.34 2.38 0 0 Z " fill="#0A1D35" transform="translate(85,77)"/>
<path d="M0 0 C4.62 0 9.24 0 14 0 C13.67 0.99 13.34 1.98 13 3 C8.71 2.34 4.42 1.68 0 1 C0 0.67 0 0.34 0 0 Z " fill="#1F1624" transform="translate(210,86)"/>
<path d="M0 0 C1.485 0.99 1.485 0.99 3 2 C5.50896686 2.45601261 5.50896686 2.45601261 8.1875 2.625 C9.08855469 2.69976562 9.98960937 2.77453125 10.91796875 2.8515625 C11.60503906 2.90054688 12.29210937 2.94953125 13 3 C13 3.33 13 3.66 13 4 C5.80275455 6.31775701 5.80275455 6.31775701 2 4.8125 C1.34 4.214375 0.68 3.61625 0 3 C0 2.01 0 1.02 0 0 Z " fill="#102536" transform="translate(208,79)"/>
<path d="M0 0 C2.18975773 3.28463659 2.99806563 6.20696275 4 10 C2.68 10 1.36 10 0 10 C0 6.7 0 3.4 0 0 Z " fill="#2D2D2D" transform="translate(32,64)"/>
<path d="M0 0 C0.66 0.33 1.32 0.66 2 1 C2 2.65 2 4.3 2 6 C-0.95664519 7.4783226 -3.74229737 7.06032783 -7 7 C-7 6.67 -7 6.34 -7 6 C-5.5459375 5.62875 -5.5459375 5.62875 -4.0625 5.25 C-2.5465625 4.63125 -2.5465625 4.63125 -1 4 C-0.03122943 1.96756452 -0.03122943 1.96756452 0 0 Z " fill="#4B78B9" transform="translate(101,61)"/>
<path d="M0 0 C1.98 0 3.96 0 6 0 C5.6875 1.875 5.6875 1.875 5 4 C4.01 4.66 3.02 5.32 2 6 C2.33 4.35 2.66 2.7 3 1 C1.68 1.33 0.36 1.66 -1 2 C-0.67 1.34 -0.34 0.68 0 0 Z " fill="#C7C8C6" transform="translate(76,75)"/>
<path d="M0 0 C1.65 0 3.3 0 5 0 C5.33 0.99 5.66 1.98 6 3 C5 4 5 4 2.4375 4.0625 C1.2309375 4.0315625 1.2309375 4.0315625 0 4 C0 2.68 0 1.36 0 0 Z " fill="#5576D0" transform="translate(142,69)"/>
<path d="M0 0 C1.65 0 3.3 0 5 0 C5 1.32 5 2.64 5 4 C4.01 4.33 3.02 4.66 2 5 C1.34 4.34 0.68 3.68 0 3 C0 2.01 0 1.02 0 0 Z " fill="#3D85E9" transform="translate(98,69)"/>
<path d="M0 0 C0 1.65 0 3.3 0 5 C-3.465 3.02 -3.465 3.02 -7 1 C-3.375 -1.125 -3.375 -1.125 0 0 Z " fill="#13233A" transform="translate(204,59)"/>
<path d="M0 0 C2.31 0 4.62 0 7 0 C7.33 0.99 7.66 1.98 8 3 C5.6568787 2.74438677 3.32156597 2.40729228 1 2 C0.67 1.34 0.34 0.68 0 0 Z " fill="#101D29" transform="translate(171,82)"/>
<path d="M0 0 C0.66 0 1.32 0 2 0 C0.25 4.875 0.25 4.875 -2 6 C-2.99 5.34 -3.98 4.68 -5 4 C-4.0409375 3.8453125 -4.0409375 3.8453125 -3.0625 3.6875 C-2.381875 3.460625 -1.70125 3.23375 -1 3 C-0.67 2.01 -0.34 1.02 0 0 Z " fill="#1B273D" transform="translate(227,77)"/>
<path d="M0 0 C0.99 0.33 1.98 0.66 3 1 C4.1875 4.0625 4.1875 4.0625 5 7 C3.68 7 2.36 7 1 7 C0.67 4.69 0.34 2.38 0 0 Z " fill="#071F20" transform="translate(132,74)"/>
<path d="M0 0 C1.4540625 0.0309375 1.4540625 0.0309375 2.9375 0.0625 C2.6075 1.7125 2.2775 3.3625 1.9375 5.0625 C0.9475 5.3925 -0.0425 5.7225 -1.0625 6.0625 C-1.0625 5.4025 -1.0625 4.7425 -1.0625 4.0625 C-0.4025 4.0625 0.2575 4.0625 0.9375 4.0625 C0.6075 3.4025 0.2775 2.7425 -0.0625 2.0625 C-2.08713255 1.41036708 -2.08713255 1.41036708 -4.0625 1.0625 C-3.0625 0.0625 -3.0625 0.0625 0 0 Z " fill="#4C6EA7" transform="translate(129.0625,74.9375)"/>
<path d="M0 0 C2.475 0.99 2.475 0.99 5 2 C4.34 4.64 3.68 7.28 3 10 C2.67 10 2.34 10 2 10 C2 8.02 2 6.04 2 4 C1.34 4 0.68 4 0 4 C0 2.68 0 1.36 0 0 Z " fill="#162444" transform="translate(133,68)"/>
<path d="M0 0 C0.66 0 1.32 0 2 0 C2.66 1.98 3.32 3.96 4 6 C3.01 6.33 2.02 6.66 1 7 C0.67 4.69 0.34 2.38 0 0 Z " fill="#497BCE" transform="translate(103,63)"/>
<path d="M0 0 C1.98 0 3.96 0 6 0 C5.67 0.99 5.34 1.98 5 3 C3.35 3 1.7 3 0 3 C0 2.01 0 1.02 0 0 Z " fill="#4D7EDD" transform="translate(144,62)"/>
<path d="M0 0 C0.94875 0.04125 1.8975 0.0825 2.875 0.125 C3.205 1.445 3.535 2.765 3.875 4.125 C-0.58 3.135 -0.58 3.135 -5.125 2.125 C-3.125 0.125 -3.125 0.125 0 0 Z " fill="#537FD3" transform="translate(198.125,60.875)"/>
<path d="M0 0 C1.65 0 3.3 0 5 0 C5 1.32 5 2.64 5 4 C2.525 3.01 2.525 3.01 0 2 C0 1.34 0 0.68 0 0 Z " fill="#487FD8" transform="translate(102,77)"/>
<path d="M0 0 C0.66 0 1.32 0 2 0 C2.33 1.32 2.66 2.64 3 4 C4.98 4 6.96 4 9 4 C9 4.33 9 4.66 9 5 C2.47692308 5.36923077 2.47692308 5.36923077 0.0625 3.5 C-0.4634375 2.7575 -0.4634375 2.7575 -1 2 C-0.67 1.34 -0.34 0.68 0 0 Z " fill="#4C7AC6" transform="translate(210,68)"/>
<path d="M0 0 C2 1 2 1 3 3 C1.35 3.33 -0.3 3.66 -2 4 C-2.33 5.32 -2.66 6.64 -3 8 C-3.36923077 3.44615385 -3.36923077 3.44615385 -1.5 1.1875 C-1.005 0.795625 -0.51 0.40375 0 0 Z " fill="#4C78BE" transform="translate(211,61)"/>
<path d="M0 0 C0.33 0.99 0.66 1.98 1 3 C-1.31 3 -3.62 3 -6 3 C-6 2.34 -6 1.68 -6 1 C-4 0 -4 0 0 0 Z " fill="#0A1E3F" transform="translate(166,50)"/>
</svg>
